# xmcd CD database file
#
# Track frame offsets:
#	187
#	5947
#	25227
#	45687
#	68497
#	89527
#	109005
#	125245
#	155767
#	169730
#	195060
#	221057
#	248612
#	269320
#	303092
#
# Disc length: 4333 seconds
#
# Revision: 0
# Processed by: cddbd v1.5.1PL2 Copyright (c) Steve Scherf et al.
# Submitted via: CDex 1.51
#
DISCID=ca10eb0f
DTITLE=FUN FACTORY - NON STOP-THE ALBUM
DYEAR=1996
DGENRE=Pop
TTITLE0=INTRO JAM
TTITLE1=GROOVE ME
TTITLE2=TAKE YOUR CHANCE
TTITLE3=LOVE OF MY LIFE
TTITLE4=CLOSE TO YOU
TTITLE5=WE ARE THE WORLD
TTITLE6=FUN FACTORY'S GROOVE
TTITLE7=HEY LITTLE GIRL
TTITLE8=FUNFACTORY'S THEME
TTITLE9=PROVE YOUR LOVE
TTITLE10=PAIN
TTITLE11=I MISS HER
TTITLE12=CLOSE TO YOU (TROUBLE MIX)
TTITLE13=TAKE YOUR CHANCE (TAKE THE TRANCE MIX)
TTITLE14=PAIN (FEEL THE PAIN MIX)
EXTD=YEAR: 1996
EXTT0=
EXTT1=
EXTT2=
EXTT3=
EXTT4=
EXTT5=
EXTT6=
EXTT7=
EXTT8=
EXTT9=
EXTT10=
EXTT11=
EXTT12=
EXTT13=
EXTT14=
PLAYORDER=
